<svg class="SudokuSvg readonly" xmlns="http://www.w3.org/2000/svg" viewBox="-1.5 -1.5 453 453" font-size="16" font-family="Arial, sans-serif"><g ><rect height="450" width="450" fill="#fff"></rect><g transform="scale(50)"><path d="" fill="#fff0" stroke-width="0.1" stroke-dasharray=""></path><path d="" fill="transparent" stroke="#eedd0099" stroke-width="0.14" stroke-dasharray=""></path><path d="M1.5 0.5L1.5 1.5L1.5 2.5L2.5 3.5L3.5 4.5L4.5 5.5L5.5 5.5L6.5 5.5L7.5 5.5M1.5 3.5L1.5 4.5L1.5 5.5L2.5 6.5L3.5 7.5L4.5 8.5L5.5 8.5L6.5 8.5L7.5 8.5M7.5 1.5L6.5 2.5L5.5 3.5L4.5 4.5M2.5 5.5L3.5 6.5" fill="none" stroke="#aaaaaa" stroke-width="0.15" stroke-linecap="round" stroke-linejoin="round"></path><g opacity="1"><path d="M6.5 3.5L5.5 3.5L4.5 3.5L3.5 3.5L2.5 3.5M4.5 6.5L4.5 7.5L4.5 8.5M5.5 0.5L4.5 0.5L4.5 1.5L5.5 1.5" fill="none" stroke="#cccccc" stroke-width="0.3" stroke-linecap="round" stroke-linejoin="round"></path><circle cx="6.5" cy="3.5" fill="#cccccc" r="0.4"></circle><circle cx="4.5" cy="6.5" fill="#cccccc" r="0.4"></circle><circle cx="5.5" cy="0.5" fill="#cccccc" r="0.4"></circle></g><line x1="3" y1="0" x2="3" y2="1" stroke-width="0.06" stroke="#000" stroke-linecap="round"></line><line x1="6" y1="0" x2="6" y2="1" stroke-width="0.06" stroke="#000" stroke-linecap="round"></line><line x1="3" y1="1" x2="3" y2="2" stroke-width="0.06" stroke="#000" stroke-linecap="round"></line><line x1="6" y1="1" x2="6" y2="2" stroke-width="0.06" stroke="#000" stroke-linecap="round"></line><line x1="0" y1="3" x2="1" y2="3" stroke-width="0.06" stroke="#000" stroke-linecap="round"></line><line x1="1" y1="3" x2="2" y2="3" stroke-width="0.06" stroke="#000" stroke-linecap="round"></line><line x1="3" y1="2" x2="3" y2="3" stroke-width="0.06" stroke="#000" stroke-linecap="round"></line><line x1="2" y1="3" x2="3" y2="3" stroke-width="0.06" stroke="#000" stroke-linecap="round"></line><line x1="3" y1="3" x2="4" y2="3" stroke-width="0.06" stroke="#000" stroke-linecap="round"></line><line x1="4" y1="3" x2="5" y2="3" stroke-width="0.06" stroke="#000" stroke-linecap="round"></line><line x1="6" y1="2" x2="6" y2="3" stroke-width="0.06" stroke="#000" stroke-linecap="round"></line><line x1="5" y1="3" x2="6" y2="3" stroke-width="0.06" stroke="#000" stroke-linecap="round"></line><line x1="6" y1="3" x2="7" y2="3" stroke-width="0.06" stroke="#000" stroke-linecap="round"></line><line x1="7" y1="3" x2="8" y2="3" stroke-width="0.06" stroke="#000" stroke-linecap="round"></line><line x1="8" y1="3" x2="9" y2="3" stroke-width="0.06" stroke="#000" stroke-linecap="round"></line><line x1="3" y1="3" x2="3" y2="4" stroke-width="0.06" stroke="#000" stroke-linecap="round"></line><line x1="6" y1="3" x2="6" y2="4" stroke-width="0.06" stroke="#000" stroke-linecap="round"></line><line x1="3" y1="4" x2="3" y2="5" stroke-width="0.06" stroke="#000" stroke-linecap="round"></line><line x1="6" y1="4" x2="6" y2="5" stroke-width="0.06" stroke="#000" stroke-linecap="round"></line><line x1="0" y1="6" x2="1" y2="6" stroke-width="0.06" stroke="#000" stroke-linecap="round"></line><line x1="1" y1="6" x2="2" y2="6" stroke-width="0.06" stroke="#000" stroke-linecap="round"></line><line x1="3" y1="5" x2="3" y2="6" stroke-width="0.06" stroke="#000" stroke-linecap="round"></line><line x1="2" y1="6" x2="3" y2="6" stroke-width="0.06" stroke="#000" stroke-linecap="round"></line><line x1="3" y1="6" x2="4" y2="6" stroke-width="0.06" stroke="#000" stroke-linecap="round"></line><line x1="4" y1="6" x2="5" y2="6" stroke-width="0.06" stroke="#000" stroke-linecap="round"></line><line x1="6" y1="5" x2="6" y2="6" stroke-width="0.06" stroke="#000" stroke-linecap="round"></line><line x1="5" y1="6" x2="6" y2="6" stroke-width="0.06" stroke="#000" stroke-linecap="round"></line><line x1="6" y1="6" x2="7" y2="6" stroke-width="0.06" stroke="#000" stroke-linecap="round"></line><line x1="7" y1="6" x2="8" y2="6" stroke-width="0.06" stroke="#000" stroke-linecap="round"></line><line x1="8" y1="6" x2="9" y2="6" stroke-width="0.06" stroke="#000" stroke-linecap="round"></line><line x1="3" y1="6" x2="3" y2="7" stroke-width="0.06" stroke="#000" stroke-linecap="round"></line><line x1="6" y1="6" x2="6" y2="7" stroke-width="0.06" stroke="#000" stroke-linecap="round"></line><line x1="3" y1="7" x2="3" y2="8" stroke-width="0.06" stroke="#000" stroke-linecap="round"></line><line x1="6" y1="7" x2="6" y2="8" stroke-width="0.06" stroke="#000" stroke-linecap="round"></line><line x1="3" y1="8" x2="3" y2="9" stroke-width="0.06" stroke="#000" stroke-linecap="round"></line><line x1="6" y1="8" x2="6" y2="9" stroke-width="0.06" stroke="#000" stroke-linecap="round"></line><rect height="9" width="9" fill="none" stroke="#000" stroke-width="0.06" stroke-linecap="round"></rect><g ><path d="M1.08 0.08L1.92 0.08L1.92 1.5L1.92 2.5L1.92 3.5L1.92 4.5L1.92 5.92L1.08 5.92L1.08 4.5L1.08 3.5L1.08 2.5L1.08 1.5Z" fill="transparent" stroke="#000000" stroke-width="0.025" stroke-dasharray="0.1 0.06"></path><path d="M0.08 3.08L0.92 3.08L0.92 4.5L0.92 5.92L0.08 5.92L0.08 4.5Z" fill="transparent" stroke="#000000" stroke-width="0.025" stroke-dasharray="0.1 0.06"></path><path d="M6.08 3.08L6.92 3.08L6.92 4.5L6.92 5.92L6.08 5.92L6.08 4.5Z" fill="transparent" stroke="#000000" stroke-width="0.025" stroke-dasharray="0.1 0.06"></path><path d="M4.08 4.08L4.92 4.08L4.92 5.92L4.08 5.92Z" fill="transparent" stroke="#000000" stroke-width="0.025" stroke-dasharray="0.1 0.06"></path><path d="M3.08 4.08L3.92 4.08L3.92 5.92L3.08 5.92Z" fill="transparent" stroke="#000000" stroke-width="0.025" stroke-dasharray="0.1 0.06"></path><path d="M3.08 2.92L3.08 2.08L4.5 2.08L5.5 2.08L6.92 2.08L6.92 2.92L5.5 2.92L4.5 2.92Z" fill="transparent" stroke="#000000" stroke-width="0.025" stroke-dasharray="0.1 0.06"></path><g transform="translate(1.045 0.036) scale(0.02)" stroke-width="3" stroke="#fff" fill="#000000" opacity="1"><text font-size="10" y="1" stroke-linejoin="round" paint-order="stroke" dominant-baseline="hanging">24</text></g><g transform="translate(0.045 3.036) scale(0.02)" stroke-width="3" stroke="#fff" fill="#000000" opacity="1"><text font-size="10" y="1" stroke-linejoin="round" paint-order="stroke" dominant-baseline="hanging">8</text></g><g transform="translate(6.045 3.036) scale(0.02)" stroke-width="3" stroke="#fff" fill="#000000" opacity="1"><text font-size="10" y="1" stroke-linejoin="round" paint-order="stroke" dominant-baseline="hanging">7</text></g><g transform="translate(4.045 4.036) scale(0.02)" stroke-width="3" stroke="#fff" fill="#000000" opacity="1"><text font-size="10" y="1" stroke-linejoin="round" paint-order="stroke" dominant-baseline="hanging">17</text></g><g transform="translate(3.045 4.036) scale(0.02)" stroke-width="3" stroke="#fff" fill="#000000" opacity="1"><text font-size="10" y="1" stroke-linejoin="round" paint-order="stroke" dominant-baseline="hanging">13</text></g><g transform="translate(3.045 2.036) scale(0.02)" stroke-width="3" stroke="#fff" fill="#000000" opacity="1"><text font-size="10" y="1" stroke-linejoin="round" paint-order="stroke" dominant-baseline="hanging">20</text></g></g><line x1="1" y1="0" x2="1" y2="9" stroke-width="0.015" stroke="#000"></line><line x1="0" y1="1" x2="9" y2="1" stroke-width="0.015" stroke="#000"></line><line x1="2" y1="0" x2="2" y2="9" stroke-width="0.015" stroke="#000"></line><line x1="0" y1="2" x2="9" y2="2" stroke-width="0.015" stroke="#000"></line><line x1="3" y1="0" x2="3" y2="9" stroke-width="0.015" stroke="#000"></line><line x1="0" y1="3" x2="9" y2="3" stroke-width="0.015" stroke="#000"></line><line x1="4" y1="0" x2="4" y2="9" stroke-width="0.015" stroke="#000"></line><line x1="0" y1="4" x2="9" y2="4" stroke-width="0.015" stroke="#000"></line><line x1="5" y1="0" x2="5" y2="9" stroke-width="0.015" stroke="#000"></line><line x1="0" y1="5" x2="9" y2="5" stroke-width="0.015" stroke="#000"></line><line x1="6" y1="0" x2="6" y2="9" stroke-width="0.015" stroke="#000"></line><line x1="0" y1="6" x2="9" y2="6" stroke-width="0.015" stroke="#000"></line><line x1="7" y1="0" x2="7" y2="9" stroke-width="0.015" stroke="#000"></line><line x1="0" y1="7" x2="9" y2="7" stroke-width="0.015" stroke="#000"></line><line x1="8" y1="0" x2="8" y2="9" stroke-width="0.015" stroke="#000"></line><line x1="0" y1="8" x2="9" y2="8" stroke-width="0.015" stroke="#000"></line><rect height="9" width="9" fill="none" stroke="#000" stroke-width="0.015"></rect></g><g transform="translate(25 25) scale(25)" paint-order="stroke" stroke="#fff" stroke-linecap="round" stroke-linejoin="round" style="fill: #5274ea;"></g><g transform="translate(75 25) scale(25)" paint-order="stroke" stroke="#fff" stroke-linecap="round" stroke-linejoin="round" style="fill: #5274ea;"></g><g transform="translate(125 25) scale(25)" paint-order="stroke" stroke="#fff" stroke-linecap="round" stroke-linejoin="round" style="fill: #5274ea;"></g><g transform="translate(175 25) scale(25)" paint-order="stroke" stroke="#fff" stroke-linecap="round" stroke-linejoin="round" style="fill: #5274ea;"></g><g transform="translate(225 25) scale(25)" paint-order="stroke" stroke="#fff" stroke-linecap="round" stroke-linejoin="round" style="fill: #5274ea;"></g><g transform="translate(275 25) scale(25)" paint-order="stroke" stroke="#fff" stroke-linecap="round" stroke-linejoin="round" style="fill: #5274ea;"></g><g transform="translate(325 25) scale(25)" paint-order="stroke" stroke="#fff" stroke-linecap="round" stroke-linejoin="round" style="fill: #5274ea;"></g><g transform="translate(375 25) scale(25)" paint-order="stroke" stroke="#fff" stroke-linecap="round" stroke-linejoin="round" style="fill: #5274ea;"></g><g transform="translate(425 25) scale(25)" paint-order="stroke" stroke="#fff" stroke-linecap="round" stroke-linejoin="round" style="fill: #5274ea;"></g><g transform="translate(25 75) scale(25)" paint-order="stroke" stroke="#fff" stroke-linecap="round" stroke-linejoin="round" style="fill: #5274ea;"></g><g transform="translate(75 75) scale(25)" paint-order="stroke" stroke="#fff" stroke-linecap="round" stroke-linejoin="round" style="fill: #5274ea;"></g><g transform="translate(125 75) scale(25)" paint-order="stroke" stroke="#fff" stroke-linecap="round" stroke-linejoin="round" style="fill: #5274ea;"></g><g transform="translate(175 75) scale(25)" paint-order="stroke" stroke="#fff" stroke-linecap="round" stroke-linejoin="round" style="fill: #5274ea;"></g><g transform="translate(225 75) scale(25)" paint-order="stroke" stroke="#fff" stroke-linecap="round" stroke-linejoin="round" style="fill: #5274ea;"></g><g transform="translate(275 75) scale(25)" paint-order="stroke" stroke="#fff" stroke-linecap="round" stroke-linejoin="round" style="fill: #5274ea;"></g><g transform="translate(325 75) scale(25)" paint-order="stroke" stroke="#fff" stroke-linecap="round" stroke-linejoin="round" style="fill: #5274ea;"></g><g transform="translate(375 75) scale(25)" paint-order="stroke" stroke="#fff" stroke-linecap="round" stroke-linejoin="round" style="fill: #5274ea;"></g><g transform="translate(425 75) scale(25)" paint-order="stroke" stroke="#fff" stroke-linecap="round" stroke-linejoin="round" style="fill: #5274ea;"></g><g transform="translate(25 125) scale(25)" paint-order="stroke" stroke="#fff" stroke-linecap="round" stroke-linejoin="round" style="fill: #5274ea;"></g><g transform="translate(75 125) scale(25)" paint-order="stroke" stroke="#fff" stroke-linecap="round" stroke-linejoin="round" style="fill: #5274ea;"></g><g transform="translate(125 125) scale(25)" paint-order="stroke" stroke="#fff" stroke-linecap="round" stroke-linejoin="round" style="fill: #5274ea;"></g><g transform="translate(175 125) scale(25)" paint-order="stroke" stroke="#fff" stroke-linecap="round" stroke-linejoin="round" style="fill: #5274ea;"></g><g transform="translate(225 125) scale(25)" paint-order="stroke" stroke="#fff" stroke-linecap="round" stroke-linejoin="round" style="fill: #5274ea;"></g><g transform="translate(275 125) scale(25)" paint-order="stroke" stroke="#fff" stroke-linecap="round" stroke-linejoin="round" style="fill: #5274ea;"></g><g transform="translate(325 125) scale(25)" paint-order="stroke" stroke="#fff" stroke-linecap="round" stroke-linejoin="round" style="fill: #5274ea;"></g><g transform="translate(375 125) scale(25)" paint-order="stroke" stroke="#fff" stroke-linecap="round" stroke-linejoin="round" style="fill: #5274ea;"></g><g transform="translate(425 125) scale(25)" paint-order="stroke" stroke="#fff" stroke-linecap="round" stroke-linejoin="round" style="fill: #5274ea;"></g><g transform="translate(25 175) scale(25)" paint-order="stroke" stroke="#fff" stroke-linecap="round" stroke-linejoin="round" style="fill: #5274ea;"></g><g transform="translate(75 175) scale(25)" paint-order="stroke" stroke="#fff" stroke-linecap="round" stroke-linejoin="round" style="fill: #5274ea;"></g><g transform="translate(125 175) scale(25)" paint-order="stroke" stroke="#fff" stroke-linecap="round" stroke-linejoin="round" style="fill: #5274ea;"></g><g transform="translate(175 175) scale(25)" paint-order="stroke" stroke="#fff" stroke-linecap="round" stroke-linejoin="round" style="fill: #5274ea;"></g><g transform="translate(225 175) scale(25)" paint-order="stroke" stroke="#fff" stroke-linecap="round" stroke-linejoin="round" style="fill: #5274ea;"></g><g transform="translate(275 175) scale(25)" paint-order="stroke" stroke="#fff" stroke-linecap="round" stroke-linejoin="round" style="fill: #5274ea;"></g><g transform="translate(325 175) scale(25)" paint-order="stroke" stroke="#fff" stroke-linecap="round" stroke-linejoin="round" style="fill: #5274ea;"></g><g transform="translate(375 175) scale(25)" paint-order="stroke" stroke="#fff" stroke-linecap="round" stroke-linejoin="round" style="fill: #5274ea;"></g><g transform="translate(425 175) scale(25)" paint-order="stroke" stroke="#fff" stroke-linecap="round" stroke-linejoin="round" style="fill: #5274ea;"></g><g transform="translate(25 225) scale(25)" paint-order="stroke" stroke="#fff" stroke-linecap="round" stroke-linejoin="round" style="fill: #5274ea;"></g><g transform="translate(75 225) scale(25)" paint-order="stroke" stroke="#fff" stroke-linecap="round" stroke-linejoin="round" style="fill: #5274ea;"></g><g transform="translate(125 225) scale(25)" paint-order="stroke" stroke="#fff" stroke-linecap="round" stroke-linejoin="round" style="fill: #5274ea;"></g><g transform="translate(175 225) scale(25)" paint-order="stroke" stroke="#fff" stroke-linecap="round" stroke-linejoin="round" style="fill: #5274ea;"></g><g transform="translate(225 225) scale(25)" paint-order="stroke" stroke="#fff" stroke-linecap="round" stroke-linejoin="round" style="fill: #5274ea;"></g><g transform="translate(275 225) scale(25)" paint-order="stroke" stroke="#fff" stroke-linecap="round" stroke-linejoin="round" style="fill: #5274ea;"></g><g transform="translate(325 225) scale(25)" paint-order="stroke" stroke="#fff" stroke-linecap="round" stroke-linejoin="round" style="fill: #5274ea;"></g><g transform="translate(375 225) scale(25)" paint-order="stroke" stroke="#fff" stroke-linecap="round" stroke-linejoin="round" style="fill: #5274ea;"></g><g transform="translate(425 225) scale(25)" paint-order="stroke" stroke="#fff" stroke-linecap="round" stroke-linejoin="round" style="fill: #5274ea;"></g><g transform="translate(25 275) scale(25)" paint-order="stroke" stroke="#fff" stroke-linecap="round" stroke-linejoin="round" style="fill: #5274ea;"></g><g transform="translate(75 275) scale(25)" paint-order="stroke" stroke="#fff" stroke-linecap="round" stroke-linejoin="round" style="fill: #5274ea;"></g><g transform="translate(125 275) scale(25)" paint-order="stroke" stroke="#fff" stroke-linecap="round" stroke-linejoin="round" style="fill: #5274ea;"></g><g transform="translate(175 275) scale(25)" paint-order="stroke" stroke="#fff" stroke-linecap="round" stroke-linejoin="round" style="fill: #5274ea;"></g><g transform="translate(225 275) scale(25)" paint-order="stroke" stroke="#fff" stroke-linecap="round" stroke-linejoin="round" style="fill: #5274ea;"></g><g transform="translate(275 275) scale(25)" paint-order="stroke" stroke="#fff" stroke-linecap="round" stroke-linejoin="round" style="fill: #5274ea;"></g><g transform="translate(325 275) scale(25)" paint-order="stroke" stroke="#fff" stroke-linecap="round" stroke-linejoin="round" style="fill: #5274ea;"></g><g transform="translate(375 275) scale(25)" paint-order="stroke" stroke="#fff" stroke-linecap="round" stroke-linejoin="round" style="fill: #5274ea;"></g><g transform="translate(425 275) scale(25)" paint-order="stroke" stroke="#fff" stroke-linecap="round" stroke-linejoin="round" style="fill: #5274ea;"></g><g transform="translate(25 325) scale(25)" paint-order="stroke" stroke="#fff" stroke-linecap="round" stroke-linejoin="round" style="fill: #5274ea;"></g><g transform="translate(75 325) scale(25)" paint-order="stroke" stroke="#fff" stroke-linecap="round" stroke-linejoin="round" style="fill: #5274ea;"></g><g transform="translate(125 325) scale(25)" paint-order="stroke" stroke="#fff" stroke-linecap="round" stroke-linejoin="round" style="fill: #5274ea;"></g><g transform="translate(175 325) scale(25)" paint-order="stroke" stroke="#fff" stroke-linecap="round" stroke-linejoin="round" style="fill: #5274ea;"></g><g transform="translate(225 325) scale(25)" paint-order="stroke" stroke="#fff" stroke-linecap="round" stroke-linejoin="round" style="fill: #5274ea;"></g><g transform="translate(275 325) scale(25)" paint-order="stroke" stroke="#fff" stroke-linecap="round" stroke-linejoin="round" style="fill: #5274ea;"></g><g transform="translate(325 325) scale(25)" paint-order="stroke" stroke="#fff" stroke-linecap="round" stroke-linejoin="round" style="fill: #5274ea;"></g><g transform="translate(375 325) scale(25)" paint-order="stroke" stroke="#fff" stroke-linecap="round" stroke-linejoin="round" style="fill: #5274ea;"></g><g transform="translate(425 325) scale(25)" paint-order="stroke" stroke="#fff" stroke-linecap="round" stroke-linejoin="round" style="fill: #5274ea;"></g><g transform="translate(25 375) scale(25)" paint-order="stroke" stroke="#fff" stroke-linecap="round" stroke-linejoin="round" style="fill: #5274ea;"></g><g transform="translate(75 375) scale(25)" paint-order="stroke" stroke="#fff" stroke-linecap="round" stroke-linejoin="round" style="fill: #5274ea;"></g><g transform="translate(125 375) scale(25)" paint-order="stroke" stroke="#fff" stroke-linecap="round" stroke-linejoin="round" style="fill: #5274ea;"></g><g transform="translate(175 375) scale(25)" paint-order="stroke" stroke="#fff" stroke-linecap="round" stroke-linejoin="round" style="fill: #5274ea;"></g><g transform="translate(225 375) scale(25)" paint-order="stroke" stroke="#fff" stroke-linecap="round" stroke-linejoin="round" style="fill: #5274ea;"></g><g transform="translate(275 375) scale(25)" paint-order="stroke" stroke="#fff" stroke-linecap="round" stroke-linejoin="round" style="fill: #5274ea;"></g><g transform="translate(325 375) scale(25)" paint-order="stroke" stroke="#fff" stroke-linecap="round" stroke-linejoin="round" style="fill: #5274ea;"></g><g transform="translate(375 375) scale(25)" paint-order="stroke" stroke="#fff" stroke-linecap="round" stroke-linejoin="round" style="fill: #5274ea;"></g><g transform="translate(425 375) scale(25)" paint-order="stroke" stroke="#fff" stroke-linecap="round" stroke-linejoin="round" style="fill: #5274ea;"></g><g transform="translate(25 425) scale(25)" paint-order="stroke" stroke="#fff" stroke-linecap="round" stroke-linejoin="round" style="fill: #5274ea;"></g><g transform="translate(75 425) scale(25)" paint-order="stroke" stroke="#fff" stroke-linecap="round" stroke-linejoin="round" style="fill: #5274ea;"></g><g transform="translate(125 425) scale(25)" paint-order="stroke" stroke="#fff" stroke-linecap="round" stroke-linejoin="round" style="fill: #5274ea;"></g><g transform="translate(175 425) scale(25)" paint-order="stroke" stroke="#fff" stroke-linecap="round" stroke-linejoin="round" style="fill: #5274ea;"></g><g transform="translate(225 425) scale(25)" paint-order="stroke" stroke="#fff" stroke-linecap="round" stroke-linejoin="round" style="fill: #5274ea;"></g><g transform="translate(275 425) scale(25)" paint-order="stroke" stroke="#fff" stroke-linecap="round" stroke-linejoin="round" style="fill: #5274ea;"></g><g transform="translate(325 425) scale(25)" paint-order="stroke" stroke="#fff" stroke-linecap="round" stroke-linejoin="round" style="fill: #5274ea;"></g><g transform="translate(375 425) scale(25)" paint-order="stroke" stroke="#fff" stroke-linecap="round" stroke-linejoin="round" style="fill: #5274ea;"></g><g transform="translate(425 425) scale(25)" paint-order="stroke" stroke="#fff" stroke-linecap="round" stroke-linejoin="round" style="fill: #5274ea;"></g><g transform="scale(50)"></g></g></svg>